<mxfile host="app.diagrams.net" modified="2024-04-03T07:16:12.227Z" agent="Mozilla/5.0 (Windows NT 10.0; Win64; x64) AppleWebKit/537.36 (KHTML, like Gecko) Chrome/123.0.0.0 Safari/537.36" version="24.2.1" etag="MoNEa6cWmF4Var2xeoIX" type="github">
  <diagram name="หน้า-1" id="7NfaPO-bGYTcYwdmIxMa">
    <mxGraphModel>
      <root>
        <mxCell id="0" />
        <mxCell id="1" parent="0" />
      </root>
    </mxGraphModel>
  </diagram>
</mxfile>
